<?xml version="1.0" encoding="UTF-8"?>
<!DOCTYPE svg PUBLIC "-//W3C//DTD SVG 1.1//EN" "http://www.w3.org/Graphics/SVG/1.1/DTD/svg11.dtd">
<svg version="1.1" xmlns="http://www.w3.org/2000/svg" xmlns:xlink="http://www.w3.org/1999/xlink" x="0" y="0" width="546" height="485" viewBox="0, 0, 546, 485">
  <defs>
    <radialGradient id="Gradient_1" gradientUnits="userSpaceOnUse" cx="258.681" cy="200.875" r="242.567">
      <stop offset="0" stop-color="#FFFFFE"/>
      <stop offset="1" stop-color="#9FA09E"/>
    </radialGradient>
    <radialGradient id="Gradient_2" gradientUnits="userSpaceOnUse" cx="287.416" cy="18.566" r="336.321">
      <stop offset="0" stop-color="#FFFFFE"/>
      <stop offset="1" stop-color="#D6D7D6"/>
      <stop offset="1" stop-color="#D6D7D6"/>
    </radialGradient>
    <radialGradient id="Gradient_3" gradientUnits="userSpaceOnUse" cx="164.888" cy="439.955" r="51.323">
      <stop offset="0" stop-color="#FFFFFE"/>
      <stop offset="1" stop-color="#9FA09E"/>
    </radialGradient>
    <radialGradient id="Gradient_4" gradientUnits="userSpaceOnUse" cx="332.255" cy="430.705" r="85.911">
      <stop offset="0" stop-color="#FFFFFE"/>
      <stop offset="1" stop-color="#9FA09E"/>
    </radialGradient>
    <radialGradient id="Gradient_5" gradientUnits="userSpaceOnUse" cx="164.888" cy="439.955" r="51.323">
      <stop offset="0" stop-color="#FFFFFE"/>
      <stop offset="1" stop-color="#CBCCCB"/>
    </radialGradient>
    <radialGradient id="Gradient_6" gradientUnits="userSpaceOnUse" cx="332.255" cy="430.705" r="85.911">
      <stop offset="0" stop-color="#D6D7D6"/>
      <stop offset="1" stop-color="#8C8D8C"/>
    </radialGradient>
    <radialGradient id="Gradient_7" gradientUnits="userSpaceOnUse" cx="332.255" cy="430.705" r="85.911">
      <stop offset="0" stop-color="#FFFFFE"/>
      <stop offset="1" stop-color="#DEDFDD"/>
    </radialGradient>
  </defs>
  <g id="Layer_1">
    <path d="M273.386,385.687 C75.887,385.687 23.929,280.092 10.262,225.359 C35.43,309.007 143.376,371.89 272.714,371.89 C418.137,371.89 536.502,292.399 540.604,193.289 L541.37,193.289 C541.37,193.289 539.948,385.687 273.386,385.687 z" fill="url(#Gradient_1)"/>
    <path d="M272.714,371.89 C143.376,371.89 35.43,309.007 10.262,225.359 C6.631,213.289 4.722,200.784 4.722,187.976 C4.722,86.39 124.714,4.062 272.714,4.062 C420.73,4.062 540.714,86.39 540.714,187.976 C540.714,189.755 540.677,191.521 540.604,193.289 C536.502,292.399 418.137,371.89 272.714,371.89 z M214.234,351.574 C214.854,351.86 215.696,352.043 216.792,352.109 C224.862,352.579 235.842,357.701 259.518,357.701 C266.512,357.701 274.612,357.254 284.073,356.109 C325.573,351.093 364.886,349.554 437.448,317.07 C510.003,284.585 560.12,168.445 497.886,119.937 C473.562,100.989 452.403,84.713 432.479,71.497 C400.282,49.807 371.491,35.961 338.081,31.523 C329.228,30.343 319.051,29.761 308.092,29.761 C263.731,29.761 206.462,39.281 171.404,57.183 C160.945,61.928 152.224,67.308 146.058,73.296 L147.248,73.296 C142.712,76.004 142.741,80.212 140.651,81.078 C137.042,82.578 110.886,91.304 105.464,91.718 C100.05,92.148 94.636,96.718 90.128,97.195 C85.62,97.664 77.495,106.64 74.792,109.984 C72.089,113.335 64.871,113.648 64.871,113.648 C64.871,113.648 54.949,126.484 47.714,136.257 C40.511,146.023 38.706,159.281 38.706,159.281 C35.628,170.96 25.183,232.937 62.16,276.031 C116.166,327.398 178.708,345.764 214.234,351.574 z" fill="url(#Gradient_2)"/>
    <path d="M38.706,159.281 C38.706,159.281 40.511,146.023 47.714,136.257 C54.949,126.484 64.871,113.648 64.871,113.648 C64.871,113.648 72.089,113.335 74.792,109.984 C77.495,106.64 85.62,97.664 90.128,97.195 C94.636,96.718 100.05,92.148 105.464,91.718 C110.886,91.304 137.042,82.578 140.651,81.078 C144.253,79.585 141.558,68.164 166.8,71.609 C192.065,75.062 206.511,78.96 209.214,81.078 C211.909,83.179 229.058,103.632 237.167,112.359 C245.284,121.078 254.323,126.484 260.628,150.835 C266.948,175.203 271.456,187.828 274.167,192.351 C276.87,196.851 284.722,213.296 283.05,222.21 C281.37,231.132 276.87,241.953 276.87,247.367 C276.87,252.781 275.058,258.804 275.058,261.656 C275.058,264.515 275.058,267.554 275.058,267.554 L279.565,301.742 L274.167,319.703 L263.331,324.538 L256.104,346.179 C256.104,346.179 248.003,351.648 242.581,353.64 C237.167,355.632 140.651,350.687 62.16,276.031 C25.183,232.937 35.628,170.96 38.706,159.281" fill="#FFFFFE"/>
    <path d="M155.433,75.015 C155.433,75.015 182.925,98.999 192.839,116.757 C202.769,134.492 237.042,172.515 239.745,191.39 C242.456,210.273 249.667,251.351 247.87,280.429 C246.065,309.507 235.011,322.187 228.698,330.132 C222.394,338.07 209.565,349.476 220.034,350.093 C230.503,350.703 239.745,359.226 281.245,354.218 C322.745,349.195 362.058,347.656 434.612,315.164 C507.151,282.695 557.292,166.538 495.042,118.046 C432.808,69.538 391.308,38.593 338.081,31.523 C284.855,24.429 183.987,38.968 150.604,71.39 L155.433,75.015" fill="#674626"/>
    <path d="M149.659,73.296 C149.659,73.296 185.753,100.906 195.675,118.64 C205.597,136.39 239.878,174.413 242.581,193.289 C245.284,212.164 252.511,253.249 250.706,282.32 C248.901,311.39 231.768,324.195 225.448,332.132 C219.136,340.085 206.323,351.484 216.792,352.109 C227.245,352.718 242.581,361.132 284.073,356.109 C325.573,351.093 364.886,349.554 437.448,317.07 C510.003,284.585 560.12,168.445 497.886,119.937 C435.636,71.445 394.144,40.476 340.917,33.406 C287.69,26.327 179.433,40.882 146.058,73.296 L149.659,73.296" fill="#885B33"/>
    <path d="M166.767,479.799 C134.626,479.797 103.073,462.005 102.19,445.281 C100.667,416.101 147.136,403.773 147.136,403.773 C155.258,402.388 162.529,401.789 169.042,401.789 C202.487,401.789 215.792,417.607 219.837,424.086 C217.944,424.456 216.933,424.664 216.933,424.664 L222.089,442.773 C222.089,442.773 223.888,442.627 227.157,442.385 C227.142,442.41 227.128,442.435 227.112,442.46 C214.935,469.946 190.689,479.8 166.767,479.799 z M106.886,451.851 C106.886,451.851 125.573,474.89 169.276,475.804 C169.276,475.804 203.878,473.726 218.979,452.976 C205.831,460.917 191.815,470.709 169.038,470.709 C165.71,470.709 162.199,470.5 158.472,470.046 C129.245,466.492 115.284,457.695 106.886,451.851 z" fill="url(#Gradient_3)"/>
    <path d="M430.453,445.63 C420.647,445.631 406.999,439.148 358.37,438.062 C352.174,437.925 345.836,437.864 339.463,437.864 C292.34,437.864 242.838,441.225 227.157,442.385 C223.888,442.627 222.089,442.773 222.089,442.773 L216.933,424.664 C216.933,424.664 217.944,424.456 219.837,424.086 C235.107,421.104 307.765,407.581 369.828,407.581 C399.48,407.581 426.705,410.666 444.112,419.46 C444.112,419.46 460.901,430.179 438.05,444.031 C435.399,445.171 433.062,445.63 430.453,445.63 z M339.284,433.512 C355.416,433.512 373.874,435.314 390.056,437.116 C406.238,438.919 420.142,440.721 427.163,440.721 C428.362,440.721 429.361,440.668 430.136,440.554 C440.784,438.992 443.987,427.523 443.987,427.523 C443.076,426.95 442.257,426.703 441.496,426.703 C437.363,426.703 434.919,433.99 428.487,436.101 C427.423,436.451 425.31,436.597 422.381,436.597 C415.093,436.597 402.764,435.693 389.041,434.79 C375.318,433.887 360.2,432.984 347.334,432.984 C341.21,432.984 335.596,433.188 330.886,433.695 C333.594,433.569 336.402,433.512 339.284,433.512 z M369.627,412.917 C375.52,412.917 381.26,412.954 386.417,413.046 C412.542,413.515 436.479,421.757 436.479,421.757 C425.344,412.763 399.167,410.361 374.357,410.361 C345.871,410.361 319.19,413.531 319.19,413.531 C319.19,413.531 345.667,412.917 369.627,412.917 z" fill="url(#Gradient_4)"/>
    <path d="M169.276,475.804 C125.573,474.89 106.886,451.851 106.886,451.851 C115.284,457.695 129.245,466.492 158.472,470.046 C162.199,470.5 165.71,470.709 169.038,470.709 C191.815,470.709 205.831,460.917 218.979,452.976 C203.878,473.726 169.276,475.804 169.276,475.804 z" fill="url(#Gradient_5)"/>
    <path d="M427.163,440.721 C420.142,440.721 406.238,438.919 390.056,437.116 C373.874,435.314 355.416,433.512 339.284,433.512 C336.402,433.512 333.594,433.569 330.886,433.695 C335.596,433.188 341.21,432.984 347.334,432.984 C360.2,432.984 375.318,433.887 389.041,434.79 C402.764,435.693 415.093,436.597 422.381,436.597 C425.31,436.597 427.423,436.451 428.487,436.101 C434.919,433.99 437.363,426.703 441.496,426.703 C442.257,426.703 443.076,426.95 443.987,427.523 C443.987,427.523 440.784,438.992 430.136,440.554 C429.361,440.668 428.362,440.721 427.163,440.721 z" fill="url(#Gradient_6)"/>
    <path d="M436.479,421.757 C436.479,421.757 412.542,413.515 386.417,413.046 C381.26,412.954 375.52,412.917 369.627,412.917 C345.667,412.917 319.19,413.531 319.19,413.531 C319.19,413.531 345.871,410.361 374.357,410.361 C399.167,410.361 425.344,412.763 436.479,421.757 z" fill="url(#Gradient_7)"/>
    <path d="M63.574,225.171 C63.574,225.171 62.074,218.656 69.589,217.64 C77.112,216.648 87.151,225.171 87.151,225.171 C87.151,225.171 92.159,220.078 98.683,221.374 C105.206,222.664 111.729,221.374 111.729,221.374 C111.729,221.374 105.206,217.484 99.19,217.562 C93.167,217.64 87.604,217.562 87.604,217.562 C87.604,217.562 71.097,205.101 63.574,225.171" fill="#CBCCCB"/>
    <path d="M127.776,187.976 C127.776,187.976 134.8,182.867 142.823,187.976 C142.823,187.976 153.94,180.531 162.925,183.539 C171.925,186.546 171.925,187.976 171.925,187.976 C171.925,187.976 165.401,175.023 152.862,177.523 C140.315,180.039 143.831,182.593 143.831,182.593 C143.831,182.593 134.3,177.359 127.776,187.976" fill="#CBCCCB"/>
    <path d="M226.831,246.132 C226.831,246.132 219.808,241.023 211.776,246.132 C211.776,246.132 200.659,238.687 191.675,241.695 C182.69,244.703 182.69,246.132 182.69,246.132 C182.69,246.132 189.214,233.179 201.753,235.679 C214.292,238.187 210.776,240.749 210.776,240.749 C210.776,240.749 220.308,235.515 226.831,246.132" fill="#CBCCCB"/>
    <path d="M145.503,288.71 C145.503,288.71 138.472,283.601 130.448,288.71 C130.448,288.71 119.331,281.265 110.347,284.273 C101.354,287.289 101.354,288.71 101.354,288.71 C101.354,288.71 107.87,275.749 120.417,278.257 C132.964,280.765 129.448,283.328 129.448,283.328 C129.448,283.328 138.979,278.093 145.503,288.71" fill="#CBCCCB"/>
    <path d="M221.526,314.773 C221.526,314.773 214.511,309.671 206.479,314.773 C206.479,314.773 195.362,307.328 186.378,310.351 C177.394,313.359 177.394,314.773 177.394,314.773 C177.394,314.773 183.909,301.82 196.448,304.335 C208.987,306.843 205.479,309.39 205.479,309.39 C205.479,309.39 215.003,304.156 221.526,314.773" fill="#CBCCCB"/>
    <path d="M116.214,153.695 C116.214,153.695 109.19,148.601 101.175,153.695 C101.175,153.695 90.042,146.257 81.058,149.265 C72.073,152.281 72.073,153.695 72.073,153.695 C72.073,153.695 78.597,140.742 91.136,143.249 C103.675,145.757 100.159,148.304 100.159,148.304 C100.159,148.304 109.698,143.07 116.214,153.695" fill="#CBCCCB"/>
    <path d="M178.987,114.281 C178.987,114.281 171.956,109.187 163.94,114.281 C163.94,114.281 152.815,106.835 143.831,109.851 C134.847,112.867 134.847,114.281 134.847,114.281 C134.847,114.281 141.37,101.328 153.909,103.835 C166.448,106.343 162.925,108.89 162.925,108.89 C162.925,108.89 172.464,103.656 178.987,114.281" fill="#CBCCCB"/>
    <path d="M432.432,292.465 C404.613,292.46 391.411,258.854 389.776,250.687 C387.839,240.986 392.399,233.328 402.09,210.694 C422.688,205.089 422.39,188.255 421.511,185.984 C421.05,184.809 418.172,182.105 413.796,179.023 C416.966,163.54 406.981,165.682 395.55,148.304 C381.097,126.335 383.417,137.898 383.987,114.187 C384.171,106.666 382.804,99.977 380.79,94.323 C385.059,98.04 389.065,102.018 392.776,106.109 C394.258,107.734 396.014,110.916 398.414,110.916 C398.875,110.916 399.359,110.799 399.87,110.531 C402.37,109.203 404.464,105.476 403.979,102.578 C403.776,101.312 402.636,100.257 401.808,99.226 C399.487,96.367 397.026,93.632 394.487,90.976 C386.558,82.703 377.69,75.296 368.081,69.07 C362.854,65.687 357.417,62.671 351.776,60.046 C351.115,59.739 350.447,59.436 349.772,59.139 C347.455,54.011 349.779,49.666 361.829,49.666 C364.895,49.666 368.594,49.948 373.003,50.57 C414.065,56.343 407.136,78.906 420.425,95.101 C433.729,111.296 449.925,129.226 463.237,148.882 C476.534,168.562 532.058,217.132 474.8,270.921 C458.015,286.69 443.969,292.467 432.432,292.465 M399.141,233.631 C396.704,233.631 395.099,236.696 394.37,243.984 C394.37,243.984 400.675,270.632 416.143,278.945 C423.175,282.718 427.9,284.067 432.36,284.067 C437.716,284.067 442.69,282.122 450.823,280.093 C466.612,276.148 484.354,252.007 486.362,238.828 C486.731,236.397 486.788,235.387 486.456,235.387 C484.984,235.387 475.871,255.142 452.261,258.882 C442.777,260.382 436.523,261.269 432.018,261.269 C422.773,261.269 420.893,257.536 413.565,247.702 C407.297,239.288 402.452,233.631 399.141,233.631" fill="#7C5033"/>
    <path d="M220.12,60.101 L252.19,77.671 L250.354,99.726 L226.354,97.742 L201.073,81.46 L201.854,58.593 L220.12,60.101" fill="#6B412A"/>
    <path d="M201.854,58.593 L190.87,74.335 L191.229,94.812 L216.558,103.015 L250.354,99.726 L228.55,97.906 L201.073,81.46 L201.854,58.593" fill="#3E261B"/>
    <path d="M432.36,284.067 C427.9,284.067 423.175,282.718 416.143,278.945 C400.675,270.632 394.37,243.984 394.37,243.984 C395.099,236.696 396.704,233.631 399.141,233.631 C402.452,233.631 407.297,239.288 413.565,247.702 C420.893,257.536 422.773,261.269 432.018,261.269 C436.523,261.269 442.777,260.382 452.261,258.882 C475.871,255.142 484.984,235.387 486.456,235.387 C486.788,235.387 486.731,236.397 486.362,238.828 C484.354,252.007 466.612,276.148 450.823,280.093 C442.69,282.122 437.716,284.067 432.36,284.067" fill="#8F674A"/>
    <path d="M294.354,72 C294.222,71.812 294.12,71.585 294.058,71.296 C293.651,69.664 295.394,65.585 295.948,63.952 C297.268,60.023 298.776,56.46 302.683,54.929 C318.565,48.734 336.925,53.14 351.776,60.046 C357.417,62.671 362.854,65.687 368.081,69.07 C377.69,75.296 386.558,82.703 394.487,90.976 C397.026,93.632 399.487,96.367 401.808,99.226 C402.636,100.257 403.776,101.312 403.979,102.578 C404.464,105.476 402.37,109.203 399.87,110.531 C396.698,112.195 394.542,108.046 392.776,106.109 C378.128,89.96 358.901,75.593 336.933,71.968 C327.339,70.374 317.456,69.421 307.729,70.367 C304.847,70.64 301.964,71.101 299.175,71.859 C297.776,72.234 295.315,73.343 294.354,72" fill="#3AAB47"/>
    <path d="M397.577,109.684 C397.233,109.684 396.878,109.618 396.519,109.468 C385.261,93.804 361.792,77.515 341.542,71.351 C332.777,69.456 324.011,68.87 316.517,68.87 C304.359,68.87 295.55,70.413 295.55,70.413 L297.769,64.742 C297.769,64.742 300.378,63.033 308.483,63.033 C315.395,63.033 326.303,64.276 342.995,68.882 C379.253,78.89 401.417,106.117 400.784,107.445 C400.279,108.506 399.028,109.684 397.577,109.684" fill="#009949"/>
    <path d="M340.55,56.679 C340.659,56.484 340.808,56.273 341.019,56.077 C342.276,54.968 346.69,54.546 348.401,54.265 C352.479,53.562 356.331,53.187 359.526,55.906 C372.526,66.953 377.37,85.195 378.331,101.539 C378.706,107.757 378.636,113.984 378.128,120.171 C377.198,131.585 374.901,142.914 371.386,153.804 C370.261,157.32 369.019,160.781 367.604,164.179 C367.089,165.398 366.698,166.89 365.675,167.679 C363.362,169.492 359.089,169.414 356.745,167.828 C353.776,165.843 356.378,161.968 357.261,159.499 C364.511,138.929 368.026,115.203 360.808,94.14 C357.636,84.929 353.784,75.781 348.339,67.671 C346.722,65.273 344.956,62.952 342.948,60.859 C341.964,59.812 339.815,58.163 340.55,56.679" fill="#D81F42"/>
    <path d="M342.503,56.976 C342.503,56.976 356.979,75.32 363.526,97.906 C367.729,118.648 364.511,147.046 356.065,164.382 C356.284,166.406 358.433,167.242 359.886,167.171 C361.354,167.117 374.8,134.671 366.386,98.007 C357.979,61.335 348.558,56.226 348.558,56.226 L342.503,56.976" fill="#91152C"/>
    <path d="M478.229,138.999 C478.386,138.851 478.604,138.718 478.87,138.609 C480.433,138.007 484.722,139.14 486.409,139.46 C490.495,140.234 494.222,141.226 496.276,144.882 C504.612,159.773 502.784,178.554 498.003,194.226 C496.198,200.171 493.948,205.984 491.331,211.609 C486.487,221.999 480.37,231.796 473.284,240.789 C471.011,243.679 468.628,246.499 466.136,249.187 C465.229,250.156 464.339,251.414 463.104,251.804 C460.292,252.679 456.323,251.117 454.659,248.835 C452.581,245.937 456.378,243.21 458.058,241.195 C472.034,224.46 483.597,203.421 484.144,181.171 C484.386,171.445 483.979,161.523 481.683,152.031 C481.011,149.203 480.159,146.421 479.019,143.757 C478.448,142.429 477.011,140.14 478.229,138.999" fill="#D81F42"/>
    <path d="M479.948,139.96 C479.948,139.96 487.136,162.195 485.394,185.648 C482.104,206.562 469.198,232.046 455.245,245.367 C454.729,247.328 456.456,248.867 457.847,249.312 C459.245,249.765 483.151,224.039 488.042,186.734 C492.933,149.437 485.87,141.374 485.87,141.374 L479.948,139.96" fill="#91152C"/>
    <path d="M258.286,351.791 C249.29,351.791 239.032,350.843 232.558,350.843 C220.917,350.843 216.018,348.398 234.401,330.624 C252.792,312.828 256.479,277.874 255.245,253.968 C254.026,230.054 243.604,176.726 243.604,176.726 C218.472,125.218 241.761,142.992 239.925,122.773 C238.776,110.163 254.77,97.555 267.584,97.555 C270.581,97.555 273.404,98.245 275.793,99.786 C273.074,100.182 271.206,101.07 271.206,101.07 C270.146,100.915 269.123,100.841 268.135,100.841 C262.645,100.841 258.267,103.114 254.823,106.266 C254.646,106.376 254.464,106.487 254.276,106.601 C251.464,108.305 249.084,112.118 247.563,116.096 C246.928,117.313 246.382,118.484 245.917,119.554 C244.978,121.715 244.975,123.933 245.907,126.153 C246.022,126.883 246.107,127.201 246.212,127.201 C246.252,127.201 246.295,127.154 246.343,127.066 C249.243,132.481 257.707,137.863 271.722,142.398 C275.521,143.63 278.92,144.14 281.945,144.14 C284.465,144.14 286.725,143.785 288.733,143.196 C293.068,156.741 298.827,169.356 303.217,185.909 C300.904,188.795 298.491,191.571 296.019,194.226 C294.23,196.14 290.276,198.648 292.214,201.664 C293.494,203.67 296.475,205.253 299.085,205.253 C299.564,205.253 300.03,205.199 300.472,205.085 C301.722,204.773 302.683,203.562 303.636,202.64 C304.556,201.755 305.462,200.852 306.354,199.936 C312.404,234.087 290.68,222.414 279.167,252.132 C277.79,255.68 276.773,259.674 276.038,263.965 C267.216,270.268 260.858,279.999 259.112,291.57 C259.061,291.909 259.015,292.248 258.972,292.586 C258.931,292.832 258.892,293.08 258.855,293.328 C256.392,309.698 263.832,325.26 276.679,333.941 C277.004,342.025 276.724,347.657 274.878,348.999 C271.877,351.184 265.486,351.791 258.286,351.791 M273.203,224.872 C273.517,224.895 273.829,224.907 274.14,224.907 C275.202,224.907 276.238,224.765 277.207,224.432 C277.295,224.413 277.383,224.394 277.472,224.374 C277.661,224.292 277.849,224.198 278.035,224.092 C278.066,224.077 278.097,224.062 278.128,224.046 C279.526,223.347 280.705,222.032 281.697,220.385 C285.066,215.409 287.24,207.476 286.463,203.65 C286.507,203.277 286.526,203.07 286.526,203.07 L271.417,168.218 L255.894,174.937 C255.716,175.078 255.544,175.224 255.376,175.376 L255.323,175.257 C245.823,181.914 252.073,209.398 252.073,209.398 L252.302,209.083 C252.835,210.267 259.685,224.872 273.105,224.872 C273.137,224.872 273.17,224.872 273.203,224.872" fill="#7C5033"/>
    <path d="M321.745,93.289 C321.917,93.148 322.136,93.023 322.401,92.929 C324.011,92.398 328.229,93.773 329.894,94.195 C333.933,95.179 337.612,96.382 339.448,100.156 C346.956,115.468 344.104,134.124 338.472,149.507 C336.331,155.335 333.776,161.023 330.854,166.499 C325.44,176.609 318.808,186.054 311.245,194.648 C308.808,197.406 306.284,200.093 303.636,202.64 C302.683,203.562 301.722,204.773 300.472,205.085 C297.628,205.82 293.729,204.039 292.214,201.664 C290.276,198.648 294.23,196.14 296.019,194.226 C310.886,178.265 323.589,157.906 325.354,135.71 C326.128,126.015 326.253,116.07 324.495,106.468 C323.979,103.632 323.276,100.796 322.292,98.07 C321.792,96.718 320.472,94.351 321.745,93.289" fill="#3AAB47"/>
    <path d="M295.413,202.328 C295.393,202.328 295.376,202.325 295.362,202.32 C293.995,201.796 292.354,200.163 292.979,198.242 C307.651,185.703 321.917,160.953 326.339,140.257 C329.37,116.921 323.417,94.335 323.417,94.335 L329.253,96.07 C329.253,96.07 335.862,104.507 328.933,141.492 C322.075,178.077 297.252,202.328 295.413,202.328" fill="#009949"/>
    <path d="M246.212,127.201 C246.107,127.201 246.022,126.883 245.907,126.153 C246.035,126.457 246.18,126.762 246.343,127.066 C246.295,127.154 246.252,127.201 246.212,127.201 M247.563,116.096 C249.084,112.118 251.464,108.305 254.276,106.601 C254.464,106.487 254.646,106.376 254.823,106.266 C251.66,109.161 249.286,112.797 247.563,116.096" fill="#8F674A"/>
    <path d="M404.261,238.335 L419.112,204.945 L441.229,204.945 L441.229,229.023 L427.12,255.562 L404.261,256.679 L404.261,238.335" fill="#6B412A"/>
    <path d="M404.261,256.679 L420.862,266.312 L441.229,264.265 L447.323,238.335 L441.229,204.945 L441.229,226.82 L427.12,255.562 L404.261,256.679" fill="#3E261B"/>
    <path d="M415.987,144.687 L424.745,109.203 L446.526,105.32 L450.761,129.031 L441.495,157.624 L419.19,162.749 L415.987,144.687" fill="#6B412A"/>
    <path d="M419.19,162.749 L437.245,169.312 L456.933,163.718 L458.386,137.132 L446.526,105.32 L450.37,126.859 L441.495,157.624 L419.19,162.749" fill="#3E261B"/>
    <path d="M384.761,252.906 C384.761,275.843 366.175,294.421 343.245,294.421 C320.308,294.421 301.714,275.843 301.714,252.906 C301.714,229.976 320.308,211.382 343.245,211.382 C366.175,211.382 384.761,229.976 384.761,252.906" fill="#2E1425"/>
    <path d="M386.542,252.906 C386.542,275.843 367.948,294.421 345.026,294.421 C322.104,294.421 303.511,275.843 303.511,252.906 C303.511,229.976 322.104,211.382 345.026,211.382 C367.948,211.382 386.542,229.976 386.542,252.906" fill="#5D304E"/>
    <path d="M349.19,291.171 C328.964,291.171 312.503,273.929 312.503,252.742 C312.503,231.546 328.964,214.312 349.19,214.312 C369.417,214.312 385.862,231.546 385.862,252.742 C385.862,273.929 369.417,291.171 349.19,291.171" fill="#F7C88B"/>
    <path d="M352.292,241.578 C352.292,241.578 348.878,237.21 350.581,237.015 C352.292,236.835 352.292,240.242 352.292,241.578" fill="#EFA15F"/>
    <path d="M349.011,246.429 C349.011,246.429 343.526,245.648 344.636,244.335 C345.729,243.015 348.097,245.476 349.011,246.429" fill="#EFA15F"/>
    <path d="M350.44,251.249 C350.44,251.249 345.433,253.578 345.628,251.882 C345.823,250.179 349.144,250.953 350.44,251.249" fill="#EFA15F"/>
    <path d="M351.87,256.328 C351.87,256.328 348.308,260.554 347.776,258.921 C347.237,257.304 350.573,256.601 351.87,256.328" fill="#EFA15F"/>
    <path d="M354.581,259.429 C354.581,259.429 354.136,264.937 352.761,263.921 C351.378,262.906 353.698,260.406 354.581,259.429" fill="#EFA15F"/>
    <path d="M358.159,259.257 C358.159,259.257 361.019,263.992 359.3,263.984 C357.589,263.96 357.995,260.585 358.159,259.257" fill="#EFA15F"/>
    <path d="M359.948,257.367 C359.948,257.367 365.401,258.343 364.253,259.624 C363.104,260.906 360.831,258.359 359.948,257.367" fill="#EFA15F"/>
    <path d="M360.714,254.101 C360.714,254.101 365.94,252.249 365.573,253.929 C365.214,255.609 361.987,254.531 360.714,254.101" fill="#EFA15F"/>
    <path d="M347.761,265.429 C347.761,265.429 346.487,270.804 345.276,269.593 C344.065,268.374 346.722,266.249 347.761,265.429" fill="#EFA15F"/>
    <path d="M352.237,269.265 C352.237,269.265 351.792,274.773 350.417,273.765 C349.026,272.742 351.339,270.234 352.237,269.265" fill="#EFA15F"/>
    <path d="M356.44,269.945 C356.44,269.945 359.3,274.687 357.589,274.671 C355.87,274.648 356.292,271.265 356.44,269.945" fill="#EFA15F"/>
    <path d="M361.487,269.585 C361.487,269.585 365.136,273.749 363.44,274.039 C361.753,274.312 361.565,270.921 361.487,269.585" fill="#EFA15F"/>
    <path d="M365.597,265.593 C365.597,265.593 370.464,268.242 368.964,269.085 C367.479,269.945 366.128,266.812 365.597,265.593" fill="#EFA15F"/>
    <path d="M360.073,249.242 C360.073,249.242 363.675,245.046 364.19,246.687 C364.722,248.32 361.37,248.984 360.073,249.242" fill="#EFA15F"/>
    <path d="M357.526,243.101 C357.526,243.101 359.854,238.093 360.808,239.515 C361.745,240.953 358.706,242.499 357.526,243.101" fill="#EFA15F"/>
    <path d="M354.847,232.164 C354.847,232.164 351.448,227.796 353.151,227.624 C354.847,227.429 354.847,230.835 354.847,232.164" fill="#EFA15F"/>
    <path d="M346.925,235.359 C346.925,235.359 344.276,230.492 345.987,230.601 C347.706,230.687 347.144,234.046 346.925,235.359" fill="#EFA15F"/>
    <path d="M359.878,233.695 C359.878,233.695 362.214,228.679 363.151,230.117 C364.104,231.539 361.065,233.093 359.878,233.695" fill="#EFA15F"/>
    <path d="M341.245,239.32 C341.245,239.32 337.511,234.554 339.378,234.359 C341.245,234.156 341.245,237.867 341.245,239.32" fill="#EFA15F"/>
    <path d="M337.659,244.624 C337.659,244.624 331.69,243.773 332.894,242.328 C334.089,240.898 336.667,243.578 337.659,244.624" fill="#EFA15F"/>
    <path d="M339.229,249.882 C339.229,249.882 333.753,252.421 333.964,250.57 C334.19,248.71 337.815,249.546 339.229,249.882" fill="#EFA15F"/>
    <path d="M340.792,255.414 C340.792,255.414 336.901,260.023 336.323,258.242 C335.737,256.468 339.378,255.71 340.792,255.414" fill="#EFA15F"/>
    <path d="M343.753,258.796 C343.753,258.796 343.261,264.812 341.761,263.695 C340.261,262.593 342.776,259.851 343.753,258.796" fill="#EFA15F"/>
    <path d="M369.417,261.382 C369.417,261.382 375.198,263.109 373.8,264.351 C372.401,265.593 370.261,262.554 369.417,261.382" fill="#EFA15F"/>
    <path d="M369.69,252.914 C369.69,252.914 375.628,253.968 374.386,255.367 C373.128,256.765 370.659,253.999 369.69,252.914" fill="#EFA15F"/>
    <path d="M370.526,249.351 C370.526,249.351 376.214,247.343 375.823,249.164 C375.433,250.992 371.901,249.812 370.526,249.351" fill="#EFA15F"/>
    <path d="M369.815,244.046 C369.815,244.046 373.753,239.468 374.323,241.257 C374.894,243.031 371.245,243.773 369.815,244.046" fill="#EFA15F"/>
    <path d="M367.042,237.351 C367.042,237.351 369.589,231.874 370.628,233.445 C371.644,235.007 368.331,236.695 367.042,237.351" fill="#EFA15F"/>
    <path d="M370.891,283.704 C370.908,283.691 370.924,283.679 370.94,283.666 C371.008,283.624 371.042,283.601 371.042,283.601 C370.993,283.634 370.943,283.669 370.891,283.704" fill="#9D6058"/>
    <path d="M349.193,291.142 C346.635,291.142 343.899,290.848 341.009,290.149 C340.649,288.211 340.152,286.312 339.528,284.466 C341.651,285.388 343.823,286.13 346.018,286.718 C349.169,287.561 352.13,287.891 354.837,287.891 C363.884,287.891 370.084,284.204 370.94,283.666 C370.924,283.679 370.908,283.691 370.891,283.704 C367.787,285.827 360.078,291.142 349.193,291.142 M316.421,259.521 C315.302,259.047 314.153,258.618 312.981,258.24 C312.118,251.995 312.862,247.468 312.862,247.468 C313.792,251.931 314.992,255.934 316.421,259.521" fill="#F3B475"/>
    <path d="M294.011,338.804 C271.323,335.39 255.706,314.242 259.112,291.57 C262.534,268.89 283.675,253.281 306.354,256.687 C329.026,260.093 344.651,281.234 341.229,303.913 C337.823,326.601 316.683,342.21 294.011,338.804" fill="#2E1425"/>
    <path d="M293.729,340.57 C271.058,337.163 255.44,316.023 258.855,293.328 C262.245,270.664 283.409,255.046 306.089,258.453 C328.761,261.851 344.378,283.015 340.972,305.687 C337.558,328.367 316.417,343.984 293.729,340.57" fill="#5D304E"/>
    <path d="M261.448,297.945 C264.464,277.937 283.948,264.226 304.917,267.382 C325.862,270.531 340.464,289.359 337.456,309.374 C334.456,329.374 314.956,343.07 293.995,339.929 C273.05,336.773 258.448,317.937 261.448,297.945" fill="#F7C88B"/>
    <path d="M310.042,308.374 C310.042,308.374 314.87,305.648 314.8,307.367 C314.729,309.078 311.354,308.57 310.042,308.374" fill="#EFA15F"/>
    <path d="M305.714,304.414 C305.714,304.414 307.308,299.117 308.44,300.398 C309.581,301.687 306.8,303.648 305.714,304.414" fill="#EFA15F"/>
    <path d="M300.745,305.117 C300.745,305.117 299.183,299.812 300.823,300.257 C302.479,300.71 301.229,303.882 300.745,305.117" fill="#EFA15F"/>
    <path d="M295.511,305.781 C295.511,305.781 291.854,301.617 293.55,301.335 C295.237,301.054 295.433,304.46 295.511,305.781" fill="#EFA15F"/>
    <path d="M292.034,307.992 C292.034,307.992 286.651,306.734 287.862,305.523 C289.089,304.304 291.214,306.96 292.034,307.992" fill="#EFA15F"/>
    <path d="M291.683,311.539 C291.683,311.539 286.573,313.679 286.839,311.976 C287.104,310.289 290.394,311.195 291.683,311.539" fill="#EFA15F"/>
    <path d="M293.284,313.601 C293.284,313.601 291.511,318.843 290.417,317.523 C289.323,316.195 292.183,314.343 293.284,313.601" fill="#EFA15F"/>
    <path d="M296.401,314.859 C296.401,314.859 297.448,320.289 295.839,319.671 C294.229,319.078 295.784,316.039 296.401,314.859" fill="#EFA15F"/>
    <path d="M287.144,300.351 C287.144,300.351 281.995,298.296 283.37,297.281 C284.745,296.257 286.464,299.195 287.144,300.351" fill="#EFA15F"/>
    <path d="M282.659,304.218 C282.659,304.218 277.276,302.945 278.487,301.726 C279.714,300.523 281.839,303.179 282.659,304.218" fill="#EFA15F"/>
    <path d="M281.362,308.265 C281.362,308.265 276.253,310.398 276.519,308.695 C276.8,307.007 280.081,307.914 281.362,308.265" fill="#EFA15F"/>
    <path d="M280.964,313.32 C280.964,313.32 276.3,316.296 276.276,314.578 C276.245,312.867 279.651,313.187 280.964,313.32" fill="#EFA15F"/>
    <path d="M284.3,317.968 C284.3,317.968 280.964,322.382 280.339,320.781 C279.722,319.187 283.019,318.304 284.3,317.968" fill="#EFA15F"/>
    <path d="M301.3,314.937 C301.3,314.937 304.917,319.124 303.229,319.39 C301.526,319.664 301.362,316.257 301.3,314.937" fill="#EFA15F"/>
    <path d="M307.761,313.328 C307.761,313.328 312.37,316.382 310.815,317.093 C309.253,317.828 308.167,314.593 307.761,313.328" fill="#EFA15F"/>
    <path d="M318.956,312.312 C318.956,312.312 323.784,309.585 323.714,311.304 C323.636,313.015 320.269,312.507 318.956,312.312" fill="#EFA15F"/>
    <path d="M316.979,303.999 C316.979,303.999 322.183,302.109 321.839,303.789 C321.487,305.468 318.245,304.414 316.979,303.999" fill="#EFA15F"/>
    <path d="M316.698,317.054 C316.698,317.054 321.308,320.101 319.769,320.828 C318.198,321.546 317.12,318.304 316.698,317.054" fill="#EFA15F"/>
    <path d="M313.917,297.781 C313.917,297.781 319.167,294.812 319.097,296.687 C319.026,298.554 315.347,298.007 313.917,297.781" fill="#EFA15F"/>
    <path d="M309.198,293.476 C309.198,293.476 310.933,287.679 312.167,289.085 C313.409,290.476 310.37,292.632 309.198,293.476" fill="#EFA15F"/>
    <path d="M303.776,294.226 C303.776,294.226 302.058,288.437 303.862,288.921 C305.667,289.421 304.3,292.89 303.776,294.226" fill="#EFA15F"/>
    <path d="M298.073,294.96 C298.073,294.96 294.073,290.406 295.933,290.093 C297.769,289.789 297.979,293.499 298.073,294.96" fill="#EFA15F"/>
    <path d="M294.276,297.382 C294.276,297.382 288.401,295.999 289.729,294.664 C291.05,293.343 293.37,296.249 294.276,297.382" fill="#EFA15F"/>
    <path d="M287.917,322.367 C287.917,322.367 285.347,327.828 284.323,326.265 C283.292,324.695 286.604,323.023 287.917,322.367" fill="#EFA15F"/>
    <path d="M296.229,323.906 C296.229,323.906 294.3,329.617 293.104,328.179 C291.909,326.726 295.034,324.695 296.229,323.906" fill="#EFA15F"/>
    <path d="M299.636,325.273 C299.636,325.273 300.784,331.187 299.034,330.523 C297.292,329.859 298.979,326.562 299.636,325.273" fill="#EFA15F"/>
    <path d="M304.979,325.351 C304.979,325.351 308.933,329.921 307.073,330.21 C305.237,330.515 305.05,326.796 304.979,325.351" fill="#EFA15F"/>
    <path d="M312.026,323.601 C312.026,323.601 317.058,326.921 315.354,327.718 C313.651,328.499 312.479,324.968 312.026,323.601" fill="#EFA15F"/>
    <path d="M265.698,320.671 C265.695,320.665 265.692,320.659 265.689,320.653 C265.69,320.654 265.691,320.656 265.691,320.657 C265.696,320.666 265.698,320.671 265.698,320.671 M278.543,272.606 C281.297,270.898 284.094,269.676 286.825,268.819 C283.899,269.76 281.119,271.036 278.543,272.606 M310.06,268.501 C309.409,268.314 308.749,268.142 308.082,267.987 C309.36,268.267 310.081,268.499 310.081,268.499 C310.073,268.5 310.068,268.5 310.06,268.501" fill="#9D6058"/>
    <path d="M265.691,320.657 C265.691,320.656 265.69,320.654 265.689,320.653 C263.475,316.077 256.142,301.468 266.565,284.296 C270.207,278.973 274.325,275.221 278.543,272.606 C281.119,271.036 283.899,269.76 286.825,268.819 C291.159,267.459 295.329,267.019 298.912,267.019 C302.882,267.019 306.132,267.559 308.082,267.987 C308.749,268.142 309.409,268.314 310.06,268.501 C284.841,269.936 272.321,281.691 266.331,295.453 C260.448,308.956 265.48,320.196 265.691,320.657" fill="#F3B475"/>
    <path d="M378.987,176.312 C378.987,176.312 386.042,164.945 398.362,170.335 C410.683,175.718 420.62,183.71 421.511,185.984 C422.394,188.265 422.69,205.234 401.823,210.765 C380.94,216.296 369.112,213.843 367.745,205.554 C366.386,197.265 365.784,182.328 378.987,176.312" fill="#F6BE6F"/>
    <path d="M400.628,180.257 C400.628,180.257 395.009,177.503 391.026,177.503 C390.157,177.503 389.367,177.634 388.729,177.953 C388.139,178.248 387.587,178.371 387.078,178.371 C384.531,178.371 383.05,175.288 383.05,175.288 C383.05,175.288 385.432,172.283 389.798,172.283 C391.151,172.283 392.694,172.572 394.417,173.328 C401.69,176.531 400.628,180.257 400.628,180.257" fill="#F0A554"/>
    <path d="M404.011,193.765 C404.011,193.765 407.337,189.476 412.258,189.476 C414.058,189.476 416.071,190.049 418.214,191.617 C416.433,192.867 404.011,193.765 404.011,193.765" fill="#F0A554"/>
    <path d="M374.878,204.945 C374.878,204.945 375.728,195.887 385.654,195.887 C385.848,195.887 386.044,195.891 386.245,195.898 C396.729,196.25 398.323,198.374 398.323,198.374 C398.323,198.374 384.651,198.554 381.097,200.859 C377.542,203.171 374.878,204.945 374.878,204.945" fill="#F0A554"/>
    <path d="M271.206,101.07 C271.206,101.07 283.284,95.328 290.714,106.539 C298.159,117.749 302.183,129.843 301.698,132.234 C301.206,134.632 292.276,149.062 271.722,142.398 C251.175,135.75 242.558,127.281 245.917,119.554 C249.261,111.851 256.839,98.968 271.206,101.07" fill="#F6BE6F"/>
    <path d="M287.245,116.109 C287.245,116.109 282.456,108.164 278.495,107.718 C274.558,107.289 275.167,102.406 275.167,102.406 C275.167,102.406 276.112,102.085 277.525,102.085 C279.741,102.085 283.108,102.874 285.784,106.929 C290.159,113.554 287.245,116.109 287.245,116.109" fill="#F0A554"/>
    <path d="M295.827,135.195 C293.565,135.195 282.776,129.281 282.776,129.281 C282.776,129.281 284.456,128.693 286.667,128.693 C289.729,128.693 293.811,129.819 295.87,135.195 C295.856,135.195 295.842,135.195 295.827,135.195" fill="#F0A554"/>
    <path d="M275.495,130.085 C275.495,130.085 263.947,122.851 259.703,122.851 C259.696,122.851 259.69,122.851 259.683,122.851 C255.433,122.859 252.229,122.906 252.229,122.906 C252.229,122.906 255.203,119.13 260.03,119.13 C261.974,119.13 264.219,119.742 266.69,121.46 C275.315,127.429 275.495,130.085 275.495,130.085" fill="#F0A554"/>
    <path d="M255.894,174.937 L271.417,168.218 L286.526,203.07 C286.526,203.07 284.847,220.687 278.128,224.046 C271.417,227.406 260.503,219.851 260.503,219.851 L252.534,209.359 C252.534,209.359 245.815,182.913 255.894,174.937" fill="#E2632C"/>
    <path d="M252.073,209.398 C252.073,209.398 245.823,181.914 255.323,175.257 L255.376,175.376 C246.851,183.112 251.538,205.105 252.405,208.822 L252.268,209.007 C252.268,209.007 252.28,209.033 252.302,209.083 L252.073,209.398" fill="#724733"/>
    <path d="M252.405,208.822 C251.538,205.105 246.851,183.112 255.376,175.376 L263.542,193.64 L259.305,199.461 L252.405,208.822" fill="#C6552F"/>
    <path d="M273.105,224.872 C259.685,224.872 252.835,210.267 252.302,209.083 L252.426,208.913 C252.495,209.204 252.534,209.359 252.534,209.359 L260.503,219.851 C260.503,219.851 267.109,224.424 273.203,224.872 C273.17,224.872 273.137,224.872 273.105,224.872 M277.207,224.432 C277.489,224.335 277.766,224.222 278.035,224.092 C277.849,224.198 277.661,224.292 277.472,224.374 C277.383,224.394 277.295,224.413 277.207,224.432 M281.697,220.385 C284.956,214.976 286.187,206.003 286.463,203.65 C287.24,207.476 285.066,215.409 281.697,220.385" fill="#724733"/>
    <path d="M273.203,224.872 C267.109,224.424 260.503,219.851 260.503,219.851 L252.534,209.359 C252.534,209.359 252.495,209.204 252.426,208.913 L259.305,199.461 L263.573,193.671 L286.073,202.499 C286.244,202.821 286.373,203.208 286.463,203.65 C286.187,206.003 284.956,214.976 281.697,220.385 C280.586,222.027 279.344,223.347 278.035,224.092 C277.766,224.222 277.489,224.335 277.207,224.432 C275.813,224.727 274.478,224.865 273.203,224.872" fill="#C6552F"/>
    <path d="M252.302,209.083 C252.28,209.033 252.268,209.007 252.268,209.007 L252.405,208.822 C252.412,208.854 252.419,208.884 252.426,208.913 L252.302,209.083" fill="#6A4033"/>
    <path d="M252.426,208.913 C252.419,208.884 252.412,208.854 252.405,208.822 L259.305,199.461 L252.426,208.913" fill="#B24931"/>
    <path d="M246.995,53.023 L256.933,39.312 L287.698,61.585 C287.698,61.585 295.245,77.617 291.175,83.929 C287.112,90.249 273.87,89.304 273.87,89.304 L261.667,84.343 C261.667,84.343 242.394,65.015 246.995,53.023" fill="#E2632C"/>
    <path d="M261.292,84.609 C261.292,84.609 241.886,64.156 246.69,53.577 L246.781,53.641 C243.367,64.629 258.619,81.169 261.277,83.942 L261.253,84.179 C261.253,84.179 261.278,84.197 261.327,84.232 L261.292,84.609" fill="#7C5033"/>
    <path d="M261.277,83.942 C258.619,81.169 243.367,64.629 246.781,53.641 L263.12,65.202 L262.456,72.248 L261.277,83.942" fill="#C6552F"/>
    <path d="M277.766,89.732 C269.414,89.731 262.135,84.798 261.327,84.232 L261.348,84.016 C261.554,84.23 261.667,84.343 261.667,84.343 L273.87,89.304 C273.87,89.304 274.572,89.354 275.702,89.354 C278.368,89.354 283.418,89.075 287.259,87.203 C284.131,89.049 280.875,89.732 277.766,89.732 M290.589,84.72 C290.781,84.493 290.961,84.254 291.125,84.005 C291.019,84.192 290.905,84.371 290.784,84.539 C290.719,84.6 290.654,84.66 290.589,84.72 M292.379,78.943 C292.418,72.628 288.904,64.286 287.94,62.118 C290.562,65.007 292.735,72.941 292.379,78.943" fill="#7C5033"/>
    <path d="M275.702,89.354 C274.572,89.354 273.87,89.304 273.87,89.304 L261.667,84.343 C261.667,84.343 261.554,84.23 261.348,84.016 L262.456,72.248 L263.167,65.202 L287.026,61.335 C287.335,61.523 287.64,61.787 287.94,62.118 C288.904,64.286 292.418,72.628 292.379,78.943 C292.262,80.924 291.869,82.695 291.125,84.005 C290.961,84.254 290.781,84.493 290.589,84.72 C289.504,85.715 288.39,86.535 287.259,87.203 C283.418,89.075 278.368,89.354 275.702,89.354" fill="#C6552F"/>
    <path d="M261.327,84.232 C261.278,84.197 261.253,84.179 261.253,84.179 L261.277,83.942 C261.301,83.967 261.325,83.992 261.348,84.016 L261.327,84.232" fill="#724733"/>
    <path d="M261.348,84.016 C261.325,83.992 261.301,83.967 261.277,83.942 L262.456,72.248 L261.348,84.016" fill="#B24931"/>
    <path d="M415.55,291.156 L422.386,306.624 L387.651,322.007 C387.651,322.007 370.011,320.468 366.597,313.773 C363.198,307.078 370.659,296.117 370.659,296.117 L381.097,288.054 C381.097,288.054 407.495,281.14 415.55,291.156" fill="#E2632C"/>
    <path d="M415.107,290.642 C411.611,286.848 405.272,285.729 399.006,285.729 C391.287,285.729 383.677,287.428 381.631,287.921 L381.448,287.788 C381.448,287.788 381.421,287.8 381.37,287.824 L381.058,287.601 C381.058,287.601 390.21,285.446 399.235,285.446 C405.84,285.446 412.375,286.599 415.214,290.593 L415.107,290.642" fill="#7C5033"/>
    <path d="M396.909,298.945 L390.251,294.18 L381.631,287.921 C383.677,287.428 391.287,285.729 399.006,285.729 C405.272,285.729 411.611,286.848 415.107,290.642 L396.909,298.945" fill="#C6552F"/>
    <path d="M385.172,322.119 C381.021,322.118 374.615,320.171 370.333,317.341 C375.767,320.533 384.693,321.689 387.06,321.947 C386.509,322.063 385.873,322.119 385.172,322.119 M366.574,313.728 C366.456,313.529 366.351,313.327 366.261,313.125 C366.237,313.02 366.213,312.916 366.191,312.812 C366.299,313.125 366.426,313.431 366.574,313.728 M365.736,308.894 C365.548,295.387 380.165,288.378 381.37,287.824 L381.537,287.944 C381.25,288.014 381.097,288.054 381.097,288.054 L370.659,296.117 C370.659,296.117 366.122,302.783 365.736,308.894" fill="#7C5033"/>
    <path d="M387.06,321.947 C384.693,321.689 375.767,320.533 370.333,317.341 C368.679,316.248 367.342,315.024 366.574,313.728 C366.426,313.431 366.299,313.125 366.191,312.812 C365.897,311.449 365.753,310.145 365.736,308.894 C366.122,302.783 370.659,296.117 370.659,296.117 L381.097,288.054 C381.097,288.054 381.25,288.014 381.537,287.944 L390.251,294.18 L396.878,298.992 L388.214,321.546 C387.892,321.721 387.503,321.854 387.06,321.947" fill="#C6552F"/>
    <path d="M381.537,287.944 L381.37,287.824 C381.421,287.8 381.448,287.788 381.448,287.788 L381.631,287.921 C381.598,287.929 381.567,287.937 381.537,287.944" fill="#724733"/>
    <path d="M390.251,294.18 L381.537,287.944 C381.567,287.937 381.598,287.929 381.631,287.921 L390.251,294.18" fill="#B24931"/>
  </g>
</svg>
